<svg width="23" height="23" viewBox="0 0 23 23" fill="none" xmlns="http://www.w3.org/2000/svg">
<g clip-path="url(#clip0_474_1120)">
<path d="M-2 15.334H28.6667V23.0007H-2V15.334Z" fill="#1EB53A"/>
<path d="M-2 0H28.6667V7.66667H-2V0Z" fill="#0099B5"/>
<path d="M-2 7.35938H28.6667V15.6394H-2V7.35938Z" fill="#CE1126"/>
<path d="M-2 7.82031H28.6667V15.1803H-2V7.82031Z" fill="white"/>
<path d="M4.43969 6.43992C5.96399 6.43992 7.19969 5.20423 7.19969 3.67992C7.19969 2.15562 5.96399 0.919922 4.43969 0.919922C2.91538 0.919922 1.67969 2.15562 1.67969 3.67992C1.67969 5.20423 2.91538 6.43992 4.43969 6.43992Z" fill="white"/>
<path d="M5.36107 6.43992C6.88538 6.43992 8.12107 5.20423 8.12107 3.67992C8.12107 2.15562 6.88538 0.919922 5.36107 0.919922C3.83677 0.919922 2.60107 2.15562 2.60107 3.67992C2.60107 5.20423 3.83677 6.43992 5.36107 6.43992Z" fill="#0099B5"/>
<path d="M10.512 5.33789L10.3372 5.86229L10.604 5.95429" fill="white"/>
<path d="M10.5127 5.33789L10.6875 5.86229L10.4207 5.95429" fill="white"/>
<path d="M11.0369 5.71898L10.4842 5.71478L10.4791 5.99695" fill="white"/>
<path d="M11.0375 5.71852L10.5928 6.04681L10.4229 5.8215" fill="white"/>
<path d="M9.98688 5.71852L10.4316 6.04681L10.6015 5.8215" fill="white"/>
<path d="M9.98773 5.71898L10.5405 5.71478L10.5455 5.99695" fill="white"/>
<path d="M10.8356 6.33712L10.6688 5.81013L10.3989 5.89252" fill="white"/>
<path d="M10.836 6.33671L10.3863 6.0152L10.5481 5.78395" fill="white"/>
<path d="M10.1865 6.33671L10.6361 6.0152L10.4743 5.78395" fill="white"/>
<path d="M10.1866 6.33712L10.3534 5.81013L10.6233 5.89252" fill="white"/>
<path d="M10.512 3.12891L10.3372 3.65331L10.604 3.74531" fill="white"/>
<path d="M10.5127 3.12891L10.6875 3.65331L10.4207 3.74531" fill="white"/>
<path d="M11.0369 3.50999L10.4842 3.5058L10.4791 3.78797" fill="white"/>
<path d="M11.0378 3.50954L10.5931 3.83783L10.4231 3.61252" fill="white"/>
<path d="M9.98688 3.50954L10.4316 3.83783L10.6015 3.61252" fill="white"/>
<path d="M9.98773 3.50999L10.5405 3.5058L10.5455 3.78797" fill="white"/>
<path d="M10.8356 4.12814L10.6688 3.60114L10.3989 3.68353" fill="white"/>
<path d="M10.836 4.12772L10.3863 3.80622L10.5481 3.57497" fill="white"/>
<path d="M10.1865 4.12772L10.6361 3.80622L10.4743 3.57497" fill="white"/>
<path d="M10.1866 4.12814L10.3534 3.60114L10.6233 3.68353" fill="white"/>
<path d="M10.5117 0.921875L10.3369 1.44627L10.6037 1.53827" fill="white"/>
<path d="M10.5125 0.921875L10.6873 1.44627L10.4205 1.53827" fill="white"/>
<path d="M11.0367 1.30296L10.4839 1.29877L10.4789 1.58094" fill="white"/>
<path d="M11.0373 1.30251L10.5926 1.6308L10.4226 1.40549" fill="white"/>
<path d="M9.98663 1.30251L10.4314 1.6308L10.6013 1.40549" fill="white"/>
<path d="M9.98749 1.30296L10.5402 1.29877L10.5453 1.58094" fill="white"/>
<path d="M10.8356 1.9211L10.6688 1.39411L10.3989 1.4765" fill="white"/>
<path d="M10.836 1.92069L10.3863 1.59919L10.5481 1.36794" fill="white"/>
<path d="M10.1865 1.92069L10.6361 1.59919L10.4743 1.36794" fill="white"/>
<path d="M10.1866 1.9211L10.3534 1.39411L10.6233 1.4765" fill="white"/>
<path d="M12.7202 5.33789L12.5454 5.86229L12.8122 5.95429" fill="white"/>
<path d="M12.7205 5.33789L12.8953 5.86229L12.6285 5.95429" fill="white"/>
<path d="M13.2444 5.71898L12.6917 5.71478L12.6866 5.99695" fill="white"/>
<path d="M13.2451 5.71852L12.8003 6.04681L12.6304 5.8215" fill="white"/>
<path d="M12.1951 5.71852L12.6398 6.04681L12.8098 5.8215" fill="white"/>
<path d="M12.1955 5.71898L12.7482 5.71478L12.7533 5.99695" fill="white"/>
<path d="M13.0441 6.33712L12.8773 5.81013L12.6074 5.89252" fill="white"/>
<path d="M13.0442 6.33671L12.5946 6.0152L12.7564 5.78395" fill="white"/>
<path d="M12.3945 6.33671L12.8441 6.0152L12.6824 5.78395" fill="white"/>
<path d="M12.3948 6.33712L12.5617 5.81013L12.8316 5.89252" fill="white"/>
<path d="M12.7202 3.12891L12.5454 3.65331L12.8122 3.74531" fill="white"/>
<path d="M12.7205 3.12891L12.8953 3.65331L12.6285 3.74531" fill="white"/>
<path d="M13.2444 3.50999L12.6917 3.5058L12.6866 3.78797" fill="white"/>
<path d="M13.2451 3.50954L12.8003 3.83783L12.6304 3.61252" fill="white"/>
<path d="M12.1951 3.50954L12.6398 3.83783L12.8098 3.61252" fill="white"/>
<path d="M12.1955 3.50999L12.7482 3.5058L12.7533 3.78797" fill="white"/>
<path d="M13.0441 4.12814L12.8773 3.60114L12.6074 3.68353" fill="white"/>
<path d="M13.0442 4.12772L12.5946 3.80622L12.7564 3.57497" fill="white"/>
<path d="M12.3945 4.12772L12.8441 3.80622L12.6824 3.57497" fill="white"/>
<path d="M12.3948 4.12814L12.5617 3.60114L12.8316 3.68353" fill="white"/>
<path d="M12.7202 0.921875L12.5454 1.44627L12.8122 1.53827" fill="white"/>
<path d="M12.7205 0.921875L12.8953 1.44627L12.6285 1.53827" fill="white"/>
<path d="M13.2447 1.30296L12.6919 1.29877L12.6869 1.58094" fill="white"/>
<path d="M13.2453 1.30251L12.8006 1.6308L12.6306 1.40549" fill="white"/>
<path d="M12.1951 1.30251L12.6398 1.6308L12.8098 1.40549" fill="white"/>
<path d="M12.1955 1.30296L12.7482 1.29877L12.7533 1.58094" fill="white"/>
<path d="M13.0441 1.9211L12.8773 1.39411L12.6074 1.4765" fill="white"/>
<path d="M13.0442 1.92069L12.5946 1.59919L12.7564 1.36794" fill="white"/>
<path d="M12.3945 1.92069L12.8441 1.59919L12.6824 1.36794" fill="white"/>
<path d="M12.3948 1.9211L12.5617 1.39411L12.8316 1.4765" fill="white"/>
<path d="M14.9287 5.33789L14.7539 5.86229L15.0207 5.95429" fill="white"/>
<path d="M14.9292 5.33789L15.104 5.86229L14.8372 5.95429" fill="white"/>
<path d="M15.4534 5.71898L14.9007 5.71478L14.8956 5.99695" fill="white"/>
<path d="M15.4538 5.71852L15.0091 6.04681L14.8391 5.8215" fill="white"/>
<path d="M14.4036 5.71852L14.8483 6.04681L15.0183 5.8215" fill="white"/>
<path d="M14.4042 5.71898L14.957 5.71478L14.962 5.99695" fill="white"/>
<path d="M15.2526 6.33712L15.0858 5.81013L14.8159 5.89252" fill="white"/>
<path d="M15.2527 6.33671L14.8031 6.0152L14.9649 5.78395" fill="white"/>
<path d="M14.6032 6.33671L15.0529 6.0152L14.8911 5.78395" fill="white"/>
<path d="M14.6036 6.33712L14.7704 5.81013L15.0403 5.89252" fill="white"/>
<path d="M14.9287 3.12891L14.7539 3.65331L15.0207 3.74531" fill="white"/>
<path d="M14.9292 3.12891L15.104 3.65331L14.8372 3.74531" fill="white"/>
<path d="M15.4534 3.50999L14.9007 3.5058L14.8956 3.78797" fill="white"/>
<path d="M15.4538 3.50954L15.0091 3.83783L14.8391 3.61252" fill="white"/>
<path d="M14.4036 3.50954L14.8483 3.83783L15.0183 3.61252" fill="white"/>
<path d="M14.4042 3.50999L14.957 3.5058L14.962 3.78797" fill="white"/>
<path d="M15.2526 4.12814L15.0858 3.60114L14.8159 3.68353" fill="white"/>
<path d="M15.2527 4.12772L14.8031 3.80622L14.9649 3.57497" fill="white"/>
<path d="M14.6032 4.12772L15.0529 3.80622L14.8911 3.57497" fill="white"/>
<path d="M14.6036 4.12814L14.7704 3.60114L15.0403 3.68353" fill="white"/>
<path d="M14.9287 0.921875L14.7539 1.44627L15.0207 1.53827" fill="white"/>
<path d="M14.9292 0.921875L15.104 1.44627L14.8372 1.53827" fill="white"/>
<path d="M15.4537 1.30296L14.9009 1.29877L14.8959 1.58094" fill="white"/>
<path d="M15.454 1.30251L15.0093 1.6308L14.8394 1.40549" fill="white"/>
<path d="M14.4036 1.30251L14.8483 1.6308L15.0183 1.40549" fill="white"/>
<path d="M14.4042 1.30296L14.957 1.29877L14.962 1.58094" fill="white"/>
<path d="M15.2526 1.9211L15.0858 1.39411L14.8159 1.4765" fill="white"/>
<path d="M15.2527 1.92069L14.8031 1.59919L14.9649 1.36794" fill="white"/>
<path d="M14.6032 1.92069L15.0529 1.59919L14.8911 1.36794" fill="white"/>
<path d="M14.6036 1.9211L14.7704 1.39411L15.0403 1.4765" fill="white"/>
<path d="M6.0957 5.33789L5.9209 5.86229L6.1877 5.95429" fill="white"/>
<path d="M6.0962 5.33789L6.271 5.86229L6.0042 5.95429" fill="white"/>
<path d="M6.62042 5.71898L6.06767 5.71478L6.06262 5.99695" fill="white"/>
<path d="M6.62103 5.72047L6.17631 6.04877L6.00637 5.82345" fill="white"/>
<path d="M5.57062 5.71852L6.01534 6.04681L6.18528 5.8215" fill="white"/>
<path d="M5.57098 5.71898L6.12373 5.71478L6.12879 5.99695" fill="white"/>
<path d="M6.42011 6.33712L6.25329 5.81013L5.98337 5.89252" fill="white"/>
<path d="M6.42022 6.33671L5.97057 6.0152L6.13234 5.78395" fill="white"/>
<path d="M5.77069 6.33671L6.22034 6.0152L6.05857 5.78395" fill="white"/>
<path d="M5.77081 6.33712L5.93763 5.81013L6.20755 5.89252" fill="white"/>
<path d="M8.30468 5.33789L8.12988 5.86229L8.39668 5.95429" fill="white"/>
<path d="M8.30494 5.33789L8.47974 5.86229L8.21294 5.95429" fill="white"/>
<path d="M8.82916 5.71898L8.27641 5.71478L8.27136 5.99695" fill="white"/>
<path d="M8.82977 5.71852L8.38506 6.04681L8.21511 5.8215" fill="white"/>
<path d="M7.77911 5.71852L8.22383 6.04681L8.39377 5.8215" fill="white"/>
<path d="M7.77948 5.71898L8.33223 5.71478L8.33728 5.99695" fill="white"/>
<path d="M8.6286 6.33712L8.46178 5.81013L8.19186 5.89252" fill="white"/>
<path d="M8.62872 6.33671L8.17907 6.0152L8.34084 5.78395" fill="white"/>
<path d="M7.9787 6.33671L8.42835 6.0152L8.26658 5.78395" fill="white"/>
<path d="M7.97882 6.33712L8.14564 5.81013L8.41556 5.89252" fill="white"/>
<path d="M8.30468 3.12891L8.12988 3.65331L8.39668 3.74531" fill="white"/>
<path d="M8.30494 3.12891L8.47974 3.65331L8.21294 3.74531" fill="white"/>
<path d="M8.82916 3.50999L8.27641 3.5058L8.27136 3.78797" fill="white"/>
<path d="M8.82977 3.51149L8.38506 3.83978L8.21511 3.61447" fill="white"/>
<path d="M7.77911 3.50954L8.22383 3.83783L8.39377 3.61252" fill="white"/>
<path d="M7.77948 3.50999L8.33223 3.5058L8.33728 3.78797" fill="white"/>
<path d="M8.62836 4.12814L8.46154 3.60114L8.19162 3.68353" fill="white"/>
<path d="M8.62872 4.12772L8.17907 3.80622L8.34084 3.57497" fill="white"/>
<path d="M7.9787 4.12772L8.42835 3.80622L8.26658 3.57497" fill="white"/>
<path d="M7.97882 4.12814L8.14564 3.60114L8.41556 3.68353" fill="white"/>
</g>
<defs>
<clipPath id="clip0_474_1120">
<path d="M0 3.83333C0 1.71624 1.71624 0 3.83333 0H19.1667C21.2838 0 23 1.71624 23 3.83333V19.1667C23 21.2838 21.2838 23 19.1667 23H3.83333C1.71624 23 0 21.2838 0 19.1667V3.83333Z" fill="white"/>
</clipPath>
</defs>
</svg>
