<svg width="23" height="23" viewBox="0 0 23 23" fill="none" xmlns="http://www.w3.org/2000/svg">
<g clip-path="url(#clip0_474_1114)">
<path d="M-4 0H26.6667V23H-4V0Z" fill="#012169"/>
<path d="M-0.40625 0L11.2854 8.67292L22.9292 0H26.6667V2.97083L15.1667 11.5479L26.6667 20.0771V23H22.8333L11.3333 14.4229L-0.11875 23H-4V20.125L7.45208 11.5958L-4 3.06667V0H-0.40625Z" fill="white"/>
<path d="M16.3167 13.4646L26.6667 21.0833V23L13.6812 13.4646H16.3167ZM7.5 14.4229L7.7875 16.1L-1.4125 23H-4L7.5 14.4229ZM26.6667 0V0.14375L14.7354 9.15208L14.8312 7.04375L24.2708 0H26.6667ZM-4 0L7.45208 8.43333H4.57708L-4 2.0125V0Z" fill="#C8102E"/>
<path d="M7.54792 0V23H15.2146V0H7.54792ZM-4 7.66667V15.3333H26.6667V7.66667H-4Z" fill="white"/>
<path d="M-4 9.24792V13.8479H26.6667V9.24792H-4ZM9.08125 0V23H13.6812V0H9.08125Z" fill="#C8102E"/>
</g>
<defs>
<clipPath id="clip0_474_1114">
<rect width="23" height="23" rx="4" fill="white"/>
</clipPath>
</defs>
</svg>
